<svg xmlns="http://www.w3.org/2000/svg" viewBox="0 0 160 160" role="img" aria-label="Rakib Ahmed profile avatar">
  <defs>
    <linearGradient id="bg" x1="0" x2="1" y1="0" y2="1">
      <stop offset="0" stop-color="#16a34a"/>
      <stop offset="1" stop-color="#2563eb"/>
    </linearGradient>
    <linearGradient id="jacket" x1="0" x2="1" y1="0" y2="1">
      <stop offset="0" stop-color="#14532d"/>
      <stop offset="1" stop-color="#0f172a"/>
    </linearGradient>
  </defs>
  <rect width="160" height="160" rx="36" fill="url(#bg)"/>
  <circle cx="42" cy="34" r="26" fill="#ffffff" opacity=".14"/>
  <circle cx="126" cy="126" r="24" fill="#ffffff" opacity=".16"/>
  <path d="M36 142c6-29 21-44 44-44s38 15 44 44H36z" fill="url(#jacket)"/>
  <circle cx="80" cy="67" r="30" fill="#eab88d"/>
  <path d="M50 62c1-25 14-38 37-38 16 0 27 10 31 29-16-4-31-8-46-18-4 10-11 19-22 27z" fill="#1f2937"/>
  <path d="M64 79c10 9 24 9 34 0" fill="none" stroke="#7c2d12" stroke-width="5" stroke-linecap="round"/>
  <circle cx="68" cy="67" r="4" fill="#111827"/>
  <circle cx="92" cy="67" r="4" fill="#111827"/>
</svg>
